<?xml version="1.0" standalone="no"?>
<!DOCTYPE svg PUBLIC "-//W3C//DTD SVG 20010904//EN"
 "http://www.w3.org/TR/2001/REC-SVG-20010904/DTD/svg10.dtd">
<svg version="1.0" xmlns="http://www.w3.org/2000/svg"
 width="500.000000pt" height="500.000000pt" viewBox="0 0 500.000000 500.000000"
 preserveAspectRatio="xMidYMid meet">
<metadata>
Created by potrace 1.14, written by Peter Selinger 2001-2017
</metadata>
<g transform="translate(0.000000,500.000000) scale(0.100000,-0.100000)"
fill="#000000" stroke="none">
<path d="M0 2500 l0 -2500 2500 0 2500 0 0 2500 0 2500 -2500 0 -2500 0 0
-2500z m2538 1278 l3 -78 264 0 265 0 0 -230 0 -230 -45 0 -45 0 0 185 0 185
-220 0 -220 0 0 -178 0 -178 28 -16 c15 -9 34 -28 42 -42 l13 -26 304 0 303 0
0 -40 0 -39 -77 -3 -78 -3 -3 -130 -4 -130 -263 -215 -264 -215 0 -72 -1 -73
-45 0 -45 0 0 73 -1 72 -262 215 -262 216 -5 129 -5 130 -72 3 -73 3 0 39 0
40 305 0 c254 0 305 2 305 14 0 8 16 28 35 45 l35 30 0 176 0 175 -220 0 -220
0 0 -185 0 -185 -45 0 -45 0 0 230 0 230 265 0 265 0 0 73 c0 41 3 77 7 81 4
4 23 6 43 4 l35 -3 3 -77z m-128 -353 c0 -42 -2 -46 -38 -64 -43 -22 -98 -80
-112 -117 -8 -21 -16 -24 -55 -24 -43 0 -46 1 -40 23 13 40 53 101 92 138 33
32 124 87 146 89 4 0 7 -20 7 -45z m257 9 c24 -14 59 -41 79 -62 34 -35 84
-119 84 -142 0 -5 -20 -10 -43 -10 -36 0 -46 4 -55 24 -18 39 -73 96 -114 117
-36 18 -38 22 -38 65 0 42 1 45 23 39 12 -4 41 -18 64 -31z m-1007 -1599 c31
-28 26 -55 -9 -55 -17 0 -33 5 -36 10 -9 14 -58 13 -53 -2 2 -6 25 -17 50 -25
53 -15 71 -33 71 -70 0 -61 -118 -89 -168 -38 -14 13 -25 29 -25 35 0 13 63
13 77 -1 13 -13 56 -2 50 14 -2 6 -25 16 -51 23 -25 7 -53 18 -61 24 -29 24
-12 83 28 100 32 14 105 5 127 -15z m350 8 c34 -19 50 -47 53 -88 l2 -30 -78
-3 c-56 -2 -77 -6 -74 -15 3 -8 26 -11 76 -8 70 3 72 2 62 -17 -17 -32 -57
-52 -106 -52 -38 0 -52 5 -76 29 -49 49 -38 148 19 184 35 21 86 21 122 0z
m396 -14 c13 -12 24 -28 24 -36 0 -17 -53 -17 -80 -1 -33 21 -55 -1 -55 -53 0
-39 3 -44 24 -47 13 -2 28 1 34 7 17 17 77 14 77 -3 0 -29 -59 -66 -104 -66
-81 0 -132 75 -106 154 24 74 128 100 186 45z m264 -54 c5 -74 7 -80 28 -83
41 -6 52 14 52 94 l0 74 35 0 35 0 0 -115 0 -115 -35 0 c-19 0 -35 5 -35 10 0
7 -6 7 -19 0 -34 -18 -80 -12 -106 15 -23 22 -25 32 -25 115 l0 91 33 -3 32
-3 5 -80z m406 70 c5 -13 8 -13 27 0 31 22 37 19 37 -20 0 -27 -4 -35 -18 -35
-32 0 -42 -22 -42 -92 l0 -68 -40 0 -40 0 0 108 c0 60 3 112 7 115 12 13 64 7
69 -8z m401 -17 c15 -15 27 -41 30 -66 l6 -42 -83 0 c-72 0 -81 -2 -70 -15 10
-12 26 -14 76 -9 73 8 80 -1 33 -40 -71 -60 -176 -18 -186 74 -5 51 21 104 60
120 38 17 107 5 134 -22z m-900 -429 c14 -14 6 -39 -12 -39 -18 0 -28 17 -21
35 6 18 18 19 33 4z m151 -30 c3 -22 7 -24 36 -21 40 5 60 -17 60 -65 0 -46
-23 -62 -85 -61 l-49 0 0 90 c0 80 2 89 18 86 10 -2 18 -14 20 -29z m-670 -31
c21 -21 13 -31 -23 -25 -44 7 -46 -6 -3 -18 58 -17 45 -75 -16 -75 -31 0 -56
15 -56 33 0 5 16 6 35 3 44 -9 46 8 3 20 -36 10 -51 49 -26 65 19 13 72 11 86
-3z m210 0 c21 -21 13 -30 -25 -26 -33 3 -38 0 -41 -21 -5 -30 13 -50 30 -33
17 17 48 15 48 -3 0 -33 -71 -46 -102 -18 -22 20 -24 76 -2 97 18 19 75 21 92
4z m182 -10 c0 -10 -7 -18 -15 -18 -11 0 -15 -12 -15 -45 0 -41 -2 -45 -25
-45 -24 0 -25 2 -25 65 l0 65 40 -2 c32 -1 40 -5 40 -20z m130 -43 c0 -58 -2
-65 -20 -65 -18 0 -20 7 -20 65 0 58 2 65 20 65 18 0 20 -7 20 -65z m442 48
c10 -9 18 -27 18 -40 0 -20 -5 -23 -42 -23 -23 0 -38 -3 -34 -7 4 -4 24 -6 44
-4 37 3 37 3 18 -18 -26 -29 -80 -28 -100 1 -33 47 -7 108 46 108 17 0 40 -7
50 -17z"/>
<path d="M2010 2981 l0 -110 215 -170 c118 -94 217 -171 220 -171 3 0 5 105 5
234 l0 234 -25 16 c-13 9 -32 30 -40 46 l-16 30 -179 0 -180 0 0 -109z m254
26 c17 -41 76 -101 116 -117 27 -11 30 -17 30 -57 0 -41 -2 -44 -22 -38 -90
27 -194 131 -222 223 -7 21 -4 22 38 22 42 0 47 -2 60 -33z"/>
<path d="M2612 3066 c-6 -14 -25 -35 -41 -47 l-31 -23 0 -234 c0 -134 4 -232
9 -230 5 2 104 77 220 168 l211 165 0 113 0 112 -178 0 -179 0 -11 -24z m218
-36 c0 -24 -54 -114 -90 -150 -36 -36 -126 -90 -150 -90 -5 0 -10 20 -10 45 0
25 5 45 11 45 27 0 102 65 127 111 26 46 29 49 70 49 23 0 42 -5 42 -10z"/>
<path d="M1920 1785 c-11 -13 -7 -15 30 -15 37 0 41 2 30 15 -7 8 -20 15 -30
15 -10 0 -23 -7 -30 -15z"/>
<path d="M3373 1793 c-25 -10 -12 -23 22 -23 36 0 47 13 19 24 -18 7 -23 7
-41 -1z"/>
<path d="M2743 1313 c-17 -6 -17 -38 0 -51 18 -16 39 1 35 28 -3 25 -14 32
-35 23z"/>
<path d="M2965 1310 c-3 -5 3 -10 15 -10 12 0 18 5 15 10 -3 6 -10 10 -15 10
-5 0 -12 -4 -15 -10z"/>
</g>
</svg>
